<?xml version="1.0" encoding="UTF-8" standalone="no"?>
<!-- Created with Inkscape (http://www.inkscape.org/) -->

<svg
   width="34.942818mm"
   height="34.46973mm"
   viewBox="0 0 34.942818 34.46973"
   version="1.1"
   id="svg1"
   sodipodi:docname="electro_icon.svg"
   inkscape:version="1.4.3 (0d15f75042, 2025-12-25)"
   xmlns:inkscape="http://www.inkscape.org/namespaces/inkscape"
   xmlns:sodipodi="http://sodipodi.sourceforge.net/DTD/sodipodi-0.dtd"
   xmlns="http://www.w3.org/2000/svg"
   xmlns:svg="http://www.w3.org/2000/svg">
  <sodipodi:namedview
     id="namedview1"
     pagecolor="#ffffff"
     bordercolor="#000000"
     borderopacity="0.25"
     inkscape:showpageshadow="2"
     inkscape:pageopacity="0.0"
     inkscape:pagecheckerboard="0"
     inkscape:deskcolor="#d1d1d1"
     inkscape:document-units="mm"
     inkscape:zoom="2.8318886"
     inkscape:cx="20.481032"
     inkscape:cy="104.17076"
     inkscape:window-width="1900"
     inkscape:window-height="1019"
     inkscape:window-x="0"
     inkscape:window-y="0"
     inkscape:window-maximized="1"
     inkscape:current-layer="svg1" />
  <defs
     id="defs1" />
  <g
     id="layer2"
     transform="translate(-121.12531,-39.067548)">
    <path
       id="path69"
       style="display:inline;fill:#fdebfc;fill-opacity:1;stroke:none;stroke-width:0.289953;stroke-opacity:1"
       d="m 139.99976,42.528689 c -6.09714,-8e-6 -11.75325,3.17853 -14.92364,8.386568 1.09706,-1.20591 2.44887,-2.224262 3.9238,-2.915067 0.93064,-0.43588 1.98652,-0.831776 3.00033,-0.999939 0.99111,-0.164392 1.76132,-0.234094 2.99982,-0.234095 0.90843,0 1.82995,0.293675 2.71043,0.517282 0.60413,0.153427 1.18869,0.402563 1.72702,0.716752 0.57085,0.333163 1.07588,0.774053 1.5627,1.221114 0.36075,0.331275 0.72466,0.671332 0.99994,1.07642 0.28049,0.412739 0.49808,0.873732 0.6444,1.350822 0.23241,0.757793 0.38303,1.559123 0.35553,2.351277 -0.0252,0.725288 -0.17503,1.463593 -0.47387,2.124935 -0.25974,0.574826 -0.63035,1.12537 -1.11414,1.530139 -0.75342,0.630354 -1.68199,1.125455 -2.651,1.286744 -0.91464,0.152241 -1.90029,0.0062 -2.76107,-0.338481 -0.68126,-0.272823 -1.27388,-0.770531 -1.76631,-1.314648 -0.39538,-0.436879 -0.70104,-0.96435 -0.90898,-1.51567 -0.21199,-0.562073 -0.38753,-1.175606 -0.32453,-1.773019 0.048,-0.455029 0.25238,-0.89969 0.52296,-1.268656 0.22464,-0.306318 0.87437,-0.731222 0.87437,-0.731222 0,0 -1.28367,-0.684813 -1.98954,-0.761193 -1.14228,-0.123603 -2.33324,0.108698 -3.40806,0.514697 -0.98265,0.371186 -1.97927,0.898108 -2.64894,1.707389 -0.981,1.185518 -1.4612,2.764239 -1.73013,4.279326 -0.24829,1.398824 0.14005,4.259688 0.14005,4.259688 0,0 -1.02549,-1.943486 -1.28623,-2.999817 -0.29877,-1.209521 -0.41743,-2.486124 -0.29455,-3.725871 -0.43227,1.538066 -0.65152,3.128155 -0.65164,4.72581 9e-5,8.094134 5.55969,15.128419 13.43484,16.998446 -0.99813,-0.538345 -1.92943,-1.210502 -2.73576,-1.99316 -0.7374,-0.715765 -1.48178,-1.5626 -1.99832,-2.451014 -0.50496,-0.868524 -0.84266,-1.564198 -1.28158,-2.722314 -0.32194,-0.84947 -0.37402,-1.815602 -0.47697,-2.71818 -0.0707,-0.619293 -0.0451,-1.2544 0.0579,-1.869137 0.10923,-0.651871 0.34255,-1.279765 0.58807,-1.893424 0.18192,-0.454738 0.37093,-0.915742 0.65216,-1.316716 0.28655,-0.408557 0.64081,-0.775687 1.03508,-1.081588 0.62624,-0.485882 1.32226,-0.910284 2.07274,-1.165303 0.68715,-0.233464 1.43059,-0.355129 2.15491,-0.310059 0.62957,0.03917 1.27578,0.190768 1.82573,0.499711 0.85645,0.481127 1.64827,1.173658 2.1425,2.022616 0.46651,0.801323 0.67942,1.77509 0.66249,2.702161 -0.0137,0.733731 -0.26878,1.463882 -0.60306,2.117183 -0.26841,0.524546 -0.6537,0.997683 -1.09554,1.387512 -0.45047,0.397426 -0.96157,0.778918 -1.54254,0.931726 -0.44249,0.116416 -0.9311,0.08247 -1.37201,-0.03979 -0.36605,-0.101503 -0.99374,-0.558105 -0.99374,-0.558105 0,0 -0.18545,1.442461 -0.007,2.129586 0.28924,1.111946 0.92824,2.143808 1.68879,3.004984 0.69534,0.787327 1.54115,1.532319 2.53524,1.871721 1.45623,0.49719 2.67375,0.321201 4.18581,0.03574 0.59801,-0.112899 2.20398,-0.847296 3.11794,-1.42801 1.21964,-0.77494 3.1897,-2.319699 3.1897,-2.319699 0,0 -0.17769,0.724733 -0.74077,1.560709 -0.22939,0.340584 -0.69338,0.738011 -1.08015,1.182069 -0.62567,0.71834 -1.78932,1.370252 -2.19313,1.649049 -0.31626,0.218426 -0.92455,0.469897 -1.26266,0.658047 7.65431,-2.035064 12.98216,-8.964533 12.98215,-16.884757 -1e-4,-2.283818 -0.44797,-4.54546 -1.31826,-6.656958 2.6e-4,0.0016 7.7e-4,0.0031 0.001,0.0047 0.26693,1.645154 0.21409,3.378801 -0.18655,4.996594 -0.24704,0.997525 -0.60362,2.066891 -1.11104,2.960543 -0.49607,0.873638 -0.92736,1.515991 -1.70688,2.478402 -0.57177,0.705921 -1.37994,1.237308 -2.10788,1.780769 -0.49947,0.372889 -1.06085,0.67033 -1.64383,0.890902 -0.61819,0.2339 -1.27837,0.348541 -1.93218,0.445451 -0.48448,0.07183 -0.97802,0.140785 -1.46606,0.09973 -0.49728,-0.04182 -0.99289,-0.162752 -1.45572,-0.349332 -0.73514,-0.296358 -1.45227,-0.684106 -2.05052,-1.204061 -0.54774,-0.47609 -1.02707,-1.057365 -1.35289,-1.705839 -0.2832,-0.563636 -0.47783,-1.197606 -0.48783,-1.828312 -0.0156,-0.982214 0.18412,-2.015597 0.66869,-2.870109 0.45737,-0.806567 1.19128,-1.480251 2.00092,-1.932182 0.6408,-0.357676 1.39992,-0.504996 2.13268,-0.545186 0.58834,-0.03227 1.19098,0.06211 1.75028,0.24753 0.5702,0.189039 1.15775,0.438542 1.58234,0.863513 0.3234,0.323666 0.53988,0.762603 0.65629,1.205094 0.0967,0.36736 0.0181,1.139466 0.0181,1.139466 0,0 1.33967,-0.56616 1.8433,-1.066602 0.81501,-0.809843 1.38463,-1.881672 1.74563,-2.972428 0.33004,-0.997222 0.54793,-2.102876 0.34055,-3.132626 -0.19936,-0.989937 -0.58702,-1.839345 -1.30757,-2.73126 -0.37744,-0.467201 -0.81604,-1.024399 -1.39614,-1.447398 -0.93072,-1.073367 -4.5194,-2.361719 -4.5194,-2.361719 0,0 0.81607,-0.136951 1.749,-0.01378 1.12504,0.14853 2.44124,0.579848 2.97969,0.832545 0.81124,0.380548 1.59095,0.855099 2.29443,1.417484 -3.31836,-3.821473 -8.13082,-6.016183 -13.19196,-6.01617 z"
       transform="translate(-1.4031646,-3.4611404)"
       sodipodi:nodetypes="ccscsscccsccsscsccscscsccccccccscccsscsscccccscccssscsscccccscsssccscscccsscccssssccscccc" />
  </g>
</svg>
