<?xml version="1.0" encoding="UTF-8" standalone="no"?>
<!-- Created with Inkscape (http://www.inkscape.org/) -->

<svg
   width="80.374168mm"
   height="80.374191mm"
   viewBox="0 0 80.374169 80.374191"
   version="1.1"
   id="svg1"
   sodipodi:docname="vision_icon.svg"
   inkscape:version="1.4.3 (0d15f75042, 2025-12-25)"
   xmlns:inkscape="http://www.inkscape.org/namespaces/inkscape"
   xmlns:sodipodi="http://sodipodi.sourceforge.net/DTD/sodipodi-0.dtd"
   xmlns:xlink="http://www.w3.org/1999/xlink"
   xmlns="http://www.w3.org/2000/svg"
   xmlns:svg="http://www.w3.org/2000/svg">
  <sodipodi:namedview
     id="namedview1"
     pagecolor="#ffffff"
     bordercolor="#000000"
     borderopacity="0.25"
     inkscape:showpageshadow="2"
     inkscape:pageopacity="0.0"
     inkscape:pagecheckerboard="0"
     inkscape:deskcolor="#d1d1d1"
     inkscape:document-units="mm"
     showgrid="false"
     inkscape:zoom="2"
     inkscape:cx="161.75"
     inkscape:cy="145.75"
     inkscape:window-width="1900"
     inkscape:window-height="1018"
     inkscape:window-x="0"
     inkscape:window-y="0"
     inkscape:window-maximized="1"
     inkscape:current-layer="layer1"
     showguides="true">
    <inkscape:grid
       id="grid1"
       units="mm"
       originx="-0.90889871"
       originy="-0.95481199"
       spacingx="0.99999998"
       spacingy="1"
       empcolor="#0099e5"
       empopacity="0.30196078"
       color="#0099e5"
       opacity="0.14901961"
       empspacing="5"
       enabled="true"
       visible="false"
       dotted="true" />
    <inkscape:page
       x="-2.0540659e-22"
       y="1.7948384e-22"
       width="80.374176"
       height="80.374184"
       id="page2"
       margin="0"
       bleed="0" />
  </sodipodi:namedview>
  <defs
     id="defs1">
    <linearGradient
       id="linearGradient9"
       inkscape:collect="always">
      <stop
         style="stop-color:#dfa143;stop-opacity:1;"
         offset="0"
         id="stop9" />
      <stop
         style="stop-color:#d38a20;stop-opacity:0;"
         offset="1"
         id="stop10" />
    </linearGradient>
    <linearGradient
       id="linearGradient4"
       inkscape:collect="always">
      <stop
         style="stop-color:#d8bdea;stop-opacity:1;"
         offset="0.17580029"
         id="stop5" />
      <stop
         style="stop-color:#431e5c;stop-opacity:0;"
         offset="1"
         id="stop6" />
    </linearGradient>
    <radialGradient
       inkscape:collect="always"
       xlink:href="#linearGradient4"
       id="radialGradient6"
       cx="30.86799"
       cy="52.933064"
       fx="30.86799"
       fy="52.933064"
       r="14.022917"
       gradientTransform="matrix(1.3224963,1.3281112,-0.39567642,0.39400358,7.0429147,-8.8691344)"
       gradientUnits="userSpaceOnUse" />
    <radialGradient
       inkscape:collect="always"
       xlink:href="#linearGradient4"
       id="radialGradient8"
       gradientUnits="userSpaceOnUse"
       gradientTransform="matrix(-1.3086024,-1.341803,0.22783818,-0.22220072,81.324913,80.104339)"
       cx="30.86799"
       cy="52.933064"
       fx="30.86799"
       fy="52.933064"
       r="14.022917" />
    <radialGradient
       inkscape:collect="always"
       xlink:href="#linearGradient9"
       id="radialGradient10"
       cx="76.795311"
       cy="39.50209"
       fx="76.795311"
       fy="39.50209"
       r="6.2838545"
       gradientTransform="matrix(1.2330664,-0.45966149,0.67486029,1.8103486,-44.556798,3.474792)"
       gradientUnits="userSpaceOnUse" />
  </defs>
  <g
     inkscape:groupmode="layer"
     id="layer2"
     inkscape:label="Слой 2"
     transform="translate(-99.812917,-19.81291)">
    <g
       id="g67"
       inkscape:label="внешка"
       style="fill:#f6c177;fill-opacity:1;stroke:#dc8e1d;stroke-opacity:1;stroke-width:0.5;stroke-dasharray:none"
       transform="translate(-0.99999685,-2.0000006)">
      <path
         style="display:inline;fill:#e7b46d;fill-opacity:1;stroke:#dc8e1d;stroke-width:0.5;stroke-opacity:1;stroke-dasharray:none"
         d="M 104,58.999999 V 41.999998 L 122,25 h 16 l -7,7 1,1.000001 -0.99999,0.99999 -6.00001,8e-6 -12,12 V 52 L 112,52.999998 111,52 Z"
         id="path51"
         sodipodi:nodetypes="ccccccccccccc" />
      <use
         x="0"
         y="0"
         xlink:href="#path51"
         id="use54"
         transform="matrix(-1,0,0,1,282,-7.0642542e-7)"
         style="display:inline;fill:#f6c177;fill-opacity:1;stroke:#dc8e1d;stroke-opacity:1;stroke-width:0.5;stroke-dasharray:none" />
      <use
         x="0"
         y="0"
         xlink:href="#use54"
         id="use55"
         transform="matrix(1,0,0,-1,0.01728,124)"
         style="fill:#f6c177;fill-opacity:1;stroke:#dc8e1d;stroke-opacity:1;stroke-width:0.5;stroke-dasharray:none" />
      <use
         x="0"
         y="0"
         xlink:href="#use55"
         id="use56"
         transform="matrix(-1,0,0,1,282.00002,2.2935746e-6)"
         style="display:inline;fill:#f6c177;fill-opacity:1;stroke:#dc8e1d;stroke-opacity:1;stroke-width:0.5;stroke-dasharray:none" />
    </g>
    <g
       id="g68"
       inkscape:label="реечки"
       style="fill:#f6c177;fill-opacity:1;stroke:#dc8e1d;stroke-opacity:1;stroke-width:0.5;stroke-dasharray:none"
       transform="translate(-0.99999685,-2.0000006)">
      <path
         style="fill:#f6c177;fill-opacity:1;stroke:#dc8e1d;stroke-width:0.5;stroke-opacity:1;stroke-dasharray:none"
         d="m 117.00001,57.999999 20,-20 -1,-1 -20,20 z"
         id="path18-1"
         sodipodi:nodetypes="ccccc" />
      <use
         x="0"
         y="0"
         xlink:href="#path18-1"
         id="use57"
         transform="translate(29.01727,29.000002)"
         style="fill:#f6c177;fill-opacity:1;stroke:#dc8e1d;stroke-opacity:1;stroke-width:0.5;stroke-dasharray:none" />
      <use
         x="0"
         y="0"
         xlink:href="#path18-1"
         id="use58"
         transform="matrix(-1,0,0,1,282.00001,-3.280798e-7)"
         style="fill:#f6c177;fill-opacity:1;stroke:#dc8e1d;stroke-opacity:1;stroke-width:0.5;stroke-dasharray:none" />
      <use
         x="0"
         y="0"
         xlink:href="#path18-1"
         id="use59"
         transform="matrix(1,0,0,-1,-0.01727,124)"
         style="fill:#f6c177;fill-opacity:1;stroke:#dc8e1d;stroke-opacity:1;stroke-width:0.5;stroke-dasharray:none" />
    </g>
    <g
       id="g66"
       inkscape:label="большие прямоугольники"
       style="fill:#f6c177;fill-opacity:1;stroke:#dc8e1d;stroke-opacity:1;stroke-width:0.5;stroke-dasharray:none"
       transform="translate(-0.99999685,-2.0000006)">
      <path
         style="display:inline;fill:#e7b46d;fill-opacity:1;stroke:#dc8e1d;stroke-width:0.5;stroke-opacity:1;stroke-dasharray:none"
         d="M 112,52.999997 132,33 l 4,4 -20,19.999996 z"
         id="path59" />
      <use
         x="0"
         y="0"
         xlink:href="#path59"
         id="use60"
         transform="translate(34.01728,34.000001)"
         style="display:inline;fill:#f6c177;fill-opacity:1;stroke:#dc8e1d;stroke-opacity:1;stroke-width:0.5;stroke-dasharray:none" />
      <use
         x="0"
         y="0"
         xlink:href="#path59"
         id="use61"
         transform="matrix(-1,0,0,1,282,-1.0455096e-6)"
         style="fill:#f6c177;fill-opacity:1;stroke:#dc8e1d;stroke-opacity:1;stroke-width:0.5;stroke-dasharray:none" />
      <use
         x="0"
         y="0"
         xlink:href="#path59"
         id="use62"
         transform="matrix(1,0,0,-1,-0.01726,124)"
         style="display:inline;fill:#f6c177;fill-opacity:1;stroke:#dc8e1d;stroke-opacity:1;stroke-width:0.5;stroke-dasharray:none" />
    </g>
    <g
       id="g65"
       inkscape:label="уголки"
       style="fill:#f6c177;fill-opacity:1;stroke:#dc8e1d;stroke-opacity:1;stroke-width:0.5;stroke-dasharray:none"
       transform="translate(-0.99999685,-2.0000006)">
      <use
         x="0"
         y="0"
         xlink:href="#path17-5"
         id="use63"
         transform="matrix(1,0,0,-1,3.2443129e-6,124)"
         style="fill:#f6c177;fill-opacity:1;stroke:#dc8e1d;stroke-opacity:1;stroke-width:0.5;stroke-dasharray:none" />
      <use
         x="0"
         y="0"
         xlink:href="#path17-5"
         id="use64"
         transform="rotate(-90,141,61.999997)"
         style="fill:#f6c177;fill-opacity:1;stroke:#dc8e1d;stroke-opacity:1;stroke-width:0.5;stroke-dasharray:none" />
      <use
         x="0"
         y="0"
         xlink:href="#path17-5"
         id="use65"
         transform="rotate(90,141,62.000001)"
         style="fill:#f6c177;fill-opacity:1;stroke:#dc8e1d;stroke-opacity:1;stroke-width:0.5;stroke-dasharray:none" />
      <path
         style="fill:#f6c177;fill-opacity:1;stroke:#dc8e1d;stroke-width:0.5;stroke-opacity:1;stroke-dasharray:none"
         d="m 137.00001,37.999999 -6,-6 9.99999,-10 10.00001,10 -6,6 -4.00001,-4 z"
         id="path17-5"
         sodipodi:nodetypes="ccccccc" />
    </g>
    <g
       id="g69"
       inkscape:label="электро">
      <path
         style="display:inline;fill:#75329f;fill-opacity:1;stroke:none;stroke-width:0.264583;stroke-opacity:1"
         d="m 140,31.999998 -28,27.999999 28,28.000006 28,-28.000004 z"
         id="path68" />
      <circle
         style="display:inline;fill:#fdebfc;fill-opacity:1;stroke:none;stroke-width:0.289953;stroke-opacity:1"
         id="path69"
         cx="140"
         cy="60"
         r="17.471325" />
      <path
         style="fill:#75329f;fill-opacity:1;stroke:none;stroke-width:0.264583;stroke-opacity:1"
         d="m 142.6447,51.648799 c -0.14632,-0.47709 -0.36421,-0.938406 -0.6447,-1.351145 -0.27528,-0.405088 -0.63925,-0.745248 -1,-1.076523 -0.48682,-0.447061 -0.99139,-0.88797 -1.56224,-1.221133 -0.53833,-0.314189 -1.12315,-0.562926 -1.72728,-0.716353 C 136.83,47.060038 135.90843,46.766136 135,46.766136 c -1.2385,10e-7 -2.00889,0.06947 -3,0.233862 -1.01381,0.168163 -2.06936,0.56412 -3,1 -1.50932,0.706913 -2.88959,1.757111 -4,2.999999 -0.5151,0.576555 -0.87083,1.289038 -1.1746,2.000001 -0.3096,0.724623 -0.56771,1.49001 -0.64544,2.27416 -0.12288,1.239754 -0.004,2.516316 0.29477,3.725844 0.26074,1.056331 1.28624,2.999994 1.28624,2.999994 0,0 -0.38861,-2.860933 -0.14032,-4.259757 0.26893,-1.515087 0.74957,-3.094136 1.73057,-4.279654 0.66967,-0.809281 1.66613,-1.335998 2.64878,-1.707184 1.07482,-0.405999 2.26594,-0.638096 3.40822,-0.514493 0.70587,0.07638 1.98935,0.76109 1.98935,0.76109 0,0 -0.64954,0.424742 -0.87418,0.73106 -0.27058,0.368966 -0.47543,0.813916 -0.52339,1.268945 -0.063,0.597413 0.11279,1.210585 0.32478,1.772658 0.20794,0.55132 0.51363,1.079177 0.90901,1.516056 0.49243,0.544117 1.08495,1.041517 1.76621,1.31434 0.86078,0.344709 1.84635,0.490937 2.76099,0.338696 0.96901,-0.161289 1.89773,-0.656625 2.65115,-1.286979 0.48379,-0.404769 0.85411,-0.954994 1.11385,-1.52982 0.29884,-0.661342 0.4488,-1.399663 0.47401,-2.124951 0.0275,-0.792154 -0.12289,-1.593411 -0.3553,-2.351204 z"
         id="path71"
         sodipodi:nodetypes="sssssssssssscsssscssssssssss" />
      <use
         x="0"
         y="0"
         xlink:href="#path71"
         id="use71"
         transform="rotate(129.00623,140.01725,59.602643)" />
      <use
         x="0"
         y="0"
         xlink:href="#path71"
         id="use72"
         transform="rotate(-110.75628,140.43623,60.043158)" />
    </g>
  </g>
  <g
     inkscape:groupmode="layer"
     id="layer1"
     inkscape:label="Слой 3">
    <path
       style="fill:url(#radialGradient6);stroke:none;stroke-width:0.504655;stroke-dasharray:none;stroke-opacity:1"
       d="M 11.773958,39.881527 39.982036,38.232291 39.687499,67.46875 Z"
       id="path1"
       sodipodi:nodetypes="cccc" />
    <path
       style="fill:url(#radialGradient8);stroke:none;stroke-width:0.504655;stroke-dasharray:none;stroke-opacity:1"
       d="M 68.072586,40.100977 39.856585,41.608572 40.297902,12.373959 Z"
       id="path8"
       sodipodi:nodetypes="cccc" />
    <path
       style="fill:url(#radialGradient10);fill-opacity:1;stroke:none;stroke-width:0.499999;stroke-dasharray:none;stroke-opacity:1"
       d="m 70.246874,30.294791 9.657292,9.525 -7.276042,7.9375 -5.291667,-3.571875 2.116667,-5.820833 L 68.923957,34.925 Z"
       id="path9" />
  </g>
</svg>
